<?xml version="1.0" encoding="utf-8"?>
<!-- Generator: Adobe Illustrator 28.3.0, SVG Export Plug-In . SVG Version: 6.00 Build 0)  -->
<svg version="1.1" id="Layer_2" xmlns="http://www.w3.org/2000/svg" xmlns:xlink="http://www.w3.org/1999/xlink" x="0px" y="0px"
	 width="2768.75px" height="2497.907px" viewBox="0 0 2768.75 2497.907" enable-background="new 0 0 2768.75 2497.907"
	 xml:space="preserve">
<path fill="#214C0E" d="M1876.186,1697.029C1733.523,2285.241,1350,2448.931,1350,2448.931s-383.523-163.689-526.186-751.902
	c70.454,0,143.662,0,143.662,0S1092.94,2182.806,1350,2182.806s382.524-485.777,382.524-485.777
	S1805.732,1697.029,1876.186,1697.029z"/>
<g>
	<path fill="#A2C4C9" d="M1174.529,1640.479H982.98l24.944-83.069h32.292l85.278-283.999l-207.097,367.068h-81.463l10.813-363.519
		l-72.487,241.399c-4.359,12.069-7.036,23.43-6.327,28.4c1.727,11.359,15.884,10.649,26.892,10.649l-24.944,83.069H632.175
		l24.944-83.069c6.605,0,29.024,3.55,37.433-22.01c3.292-8.52,5.117-17.04,8.408-25.561l86.344-287.548h-31.558l24.944-83.07
		h198.888l-12.195,282.578l158.241-282.578h198.888l-24.943,83.07h-33.025l-100.628,335.118h31.558L1174.529,1640.479z"/>
	<path fill="#A2C4C9" d="M1520.927,1640.479h-135.038l11.938-39.76c-14.018,14.91-44.682,46.149-94.587,46.149
		c-5.137,0-22.538-0.709-36.03-7.1c-24.265-12.07-43.175-46.859-23.134-113.6c2.346-7.81,15.871-50.409,44.641-80.229
		c5.375-5.68,15.486-14.91,32.936-24.141c28.175-15.619,52.606-16.329,62.882-16.329c8.072,0,32.812,0.71,48.884,15.619
		c3.338,3.551,4.379,4.971,9.586,12.07c5.117-17.04,16.794-46.149,8.061-61.06c-9.562-17.04-48.671-16.33-49.405-16.33
		c-28.622,0-51.516,7.81-80.708,17.04l26.223-87.33c7.979-2.13,16.17-4.969,24.148-7.1c29.5-7.81,64.539-12.07,92.428-12.07
		c55.043,0,114.84,13.49,119.068,70.29c0.66,14.911-2.801,36.21-13.46,71.71c-2.559,8.521-5.851,17.04-8.195,24.85l-38.375,127.8
		h22.017L1520.927,1640.479z M1411.25,1472.919c-17.613,0-27.347,17.75-35.448,44.73c-5.97,19.88-8.339,32.659-5.76,41.179
		c2.578,8.521,10.438,9.23,14.108,9.23c19.814,0,29.691-25.56,37.912-55.38C1429.952,1486.41,1428.343,1472.209,1411.25,1472.919z"
		/>
	<path fill="#A2C4C9" d="M1653.307,1519.779c-1.279,4.261-5.211,14.911-4.739,25.561c-0.05,9.94,4.47,29.11,33.092,29.11
		c18.348,0,33.501-11.36,38.618-28.4c1.918-6.391,3.103-12.78,1.446-17.04c-2.98-12.069-18.983-19.88-28.499-24.85
		c-39.319-20.59-55.44-25.56-68.34-46.149c-7.384-12.07-13.985-34.08-2.473-72.42c2.984-9.94,18.003-57.51,57.568-86.62
		c17.994-13.49,52.041-29.109,97.543-29.109c35.228,0,52.059,9.939,62.188,17.75l10.442-12.78h52.842l-30.7,102.239h-64.583
		c4.903-16.329,7.391-31.949-4.823-42.6c-7.101-5.68-14.961-6.39-19.364-6.39c-16.146,0-32.861,9.229-37.765,25.56
		c-2.677,11.36,1.796,18.46,3.878,21.3c10.107,12.78,31.272,15.62,60.648,32.66c23.625,14.199,56.74,38.34,34.781,111.469
		c-9.594,31.95-29.393,71-61.073,95.851c-38.522,30.53-80.356,30.53-93.565,30.53c-32.293,0-47.04-7.101-66.971-26.271l-18.871,21.3
		h-54.31l36.243-120.7H1653.307z"/>
	<path fill="#A2C4C9" d="M2028.618,1631.25c-5.776,2.13-12.287,4.26-18.064,6.39c-28.979,8.521-51.943,9.229-62.218,9.229
		c-16.146,0-72.229-1.419-71.438-55.38c0.381-13.49,4.006-25.559,7.843-38.339l59.269-197.38h-23.485l24.304-80.939h23.486
		l21.532-71.709l132.676-31.24l-30.913,102.949h44.033l-24.304,80.939h-44.034l-46.264,154.069c-8.834,26.98-9.215,40.47,10.6,40.47
		c5.351-0.71,16.998-2.839,22.562-4.26L2028.618,1631.25z"/>
	<path fill="#A2C4C9" d="M2235.056,1481.439c-8.622,26.271-27.383,88.75,17.385,88.75c20.763-0.71,39.491-14.199,52.565-50.41
		h86.601c-13.145,29.11-19.704,41.181-29.626,54.671c-23.325,31.24-70.184,72.419-152.381,72.419c-15.412,0-55.776,0-86.478-24.85
		c-31.009-26.27-44.092-73.13-15.95-166.85c3.838-12.78,23.57-80.939,71.827-129.219c18.54-17.75,35.683-28.4,44.301-32.661
		c43.21-24.139,80.117-24.849,95.529-24.849c41.833,0,83.592,14.909,99.992,48.279c22.104,46.149-5.587,133.479-7.507,139.87
		c-2.558,8.52-5.637,16.329-8.195,24.849H2235.056z M2302.443,1423.22c11.821-36.92,23.214-72.42-1.738-72.42
		c-2.202,0-7.552,0.711-12.808,3.55c-16.93,9.939-24.817,36.21-35.572,69.58L2302.443,1423.22z"/>
	<path fill="#A2C4C9" d="M2686.82,1396.95c-3.978-1.42-16.643-5.68-31.321-5.68c-12.476,0-25.592,2.13-36.956,10.649
		c-17.049,12.78-20.058,27.691-30.172,58.93l-30.061,100.11h30.824l-23.878,79.52h-177.604l23.878-79.52h19.815l62.04-206.609
		h-19.816l23.879-79.52h146.779l-14.923,49.699c7.388-9.939,11.603-14.199,15.817-18.46c6.322-6.39,32.865-31.239,64.969-35.499
		c6.297-1.42,9.021-0.71,15.625-0.71L2686.82,1396.95z"/>
</g>
<g>
	<path fill="#A2C4C9" d="M1089.144,516.747h146.047l-23.878,79.52h-21.283l-72.913,242.819
		c-14.473,43.31-25.797,85.91-64.464,124.249c-34.239,33.371-85.949,58.932-174.017,58.932c-19.082,0-49.479-1.421-88.515-15.621
		l31.008-100.819c2.509,1.42,4.806,3.55,8.048,4.97c10.771,5.68,30.657,12.779,62.948,12.779c32.292,0,49.41-5.68,64.563-17.039
		c6.843-5.68,11.058-9.94,12.644-12.78c5.588-6.39,14.162-22.72,19.917-41.891c1.706-5.68,2.465-10.648,3.436-16.329
		c-2.32,2.84-10.323,9.939-18.847,16.329c-12.526,9.94-41.554,28.401-78.983,28.401c-10.274,0-34.28-0.71-51.701-18.461
		c-27.646-27.689-23.211-76.68,2.586-162.589c14.498-48.281,35.059-114.311,80.876-156.91c23.489-22.011,49.958-31.95,79.314-31.95
		c54.309,0,63.653,39.76,68.93,53.96L1089.144,516.747z M1049.94,642.416c3.887-22.72-1.842-30.53-15.786-30.53
		c-13.21,0-22.492,11.36-25.026,14.911c-7.601,10.649-20.25,45.439-30.909,80.939c-8.955,29.82-13.148,51.12-9.007,61.771
		c2.698,5.679,7.716,8.52,15.79,8.52c19.815,0,29.359-22.01,31.159-25.561c2.227-4.97,13.502-37.63,21.177-63.189
		C1042.027,673.656,1046.718,658.036,1049.94,642.416z"/>
	<path fill="#A2C4C9" d="M1456.097,516.747h146.047l-23.878,79.52h-21.283l-72.913,242.819
		c-14.473,43.31-25.797,85.91-64.464,124.249c-34.239,33.371-85.948,58.932-174.017,58.932c-19.082,0-49.479-1.421-88.516-15.621
		l31.008-100.819c2.51,1.42,4.806,3.55,8.048,4.97c10.771,5.68,30.657,12.779,62.948,12.779s49.409-5.68,64.562-17.039
		c6.843-5.68,11.058-9.94,12.645-12.78c5.588-6.39,14.161-22.72,19.917-41.891c1.706-5.68,2.465-10.648,3.436-16.329
		c-2.32,2.84-10.323,9.939-18.847,16.329c-12.525,9.94-41.555,28.401-78.982,28.401c-10.275,0-34.28-0.71-51.701-18.461
		c-27.646-27.689-23.211-76.68,2.586-162.589c14.497-48.281,35.059-114.311,80.876-156.91c23.489-22.011,49.958-31.95,79.314-31.95
		c54.309,0,63.653,39.76,68.93,53.96L1456.097,516.747z M1416.894,642.416c3.887-22.72-1.842-30.53-15.786-30.53
		c-13.21,0-22.492,11.36-25.026,14.911c-7.601,10.649-20.25,45.439-30.909,80.939c-8.954,29.82-13.148,51.12-9.007,61.771
		c2.697,5.679,7.716,8.52,15.789,8.52c19.815,0,29.359-22.01,31.159-25.561c2.227-4.97,13.502-37.63,21.177-63.189
		C1408.98,673.656,1413.671,658.036,1416.894,642.416z"/>
</g>
<g>
	<path fill="#A2C4C9" d="M2289.189,1955.476v-122.113h24.61v101.369h61.194v20.744H2289.189z"/>
	<path fill="#A2C4C9" d="M2455,1866.285v18.812h-15.964v35.945c0,7.279,0.152,11.521,0.457,12.724
		c0.304,1.205,0.998,2.198,2.079,2.981c1.08,0.785,2.396,1.176,3.949,1.176c2.161,0,5.292-0.756,9.396-2.268l1.995,18.309
		c-5.433,2.352-11.586,3.527-18.458,3.527c-4.213,0-8.011-0.714-11.391-2.142c-3.382-1.428-5.862-3.275-7.441-5.543
		c-1.58-2.268-2.675-5.333-3.284-9.196c-0.499-2.742-0.749-8.285-0.749-16.629v-38.885h-10.726v-18.812h10.726v-17.721
		l23.447-13.773v31.494H2455z"/>
	<path fill="#A2C4C9" d="M2574.332,1955.476h-21.701v-13.102c-3.604,5.096-7.856,8.89-12.763,11.38
		c-4.905,2.49-9.853,3.737-14.841,3.737c-10.144,0-18.832-4.128-26.065-12.388c-7.234-8.258-10.851-19.778-10.851-34.56
		c0-15.117,3.52-26.608,10.56-34.476c7.038-7.865,15.935-11.8,26.688-11.8c9.866,0,18.402,4.145,25.609,12.43v-44.344h23.363
		V1955.476z M2511.973,1908.949c0,9.52,1.302,16.406,3.908,20.66c3.769,6.16,9.034,9.238,15.797,9.238
		c5.376,0,9.949-2.31,13.719-6.929c3.769-4.619,5.654-11.519,5.654-20.702c0-10.246-1.829-17.622-5.487-22.13
		c-3.659-4.506-8.344-6.761-14.052-6.761c-5.544,0-10.186,2.226-13.927,6.677S2511.973,1900.103,2511.973,1908.949z"/>
</g>
<path fill="#A2C4C9" d="M727.489,464.915l-35.39,117.86h75.59l-29.64,98.69h-75.59l-35.6,118.57h60.18l53.56-83.07h60.19
	l-49.68,165.43h-342.61l15.88-97.32c27.98,9.94,61.57,0.95,79.4-27c4.42-6.94,7.95-14.55,10.4-22.72l81.21-270.44h-33.03
	l25.16-83.78h314.11l-49.68,165.43h-60.18l-4.1-81.65H727.489z"/>
<path fill="#214C0E" d="M2656.689,183.965c-85.19,621.75-438.96,913.89-494.96,933.57c-113.34,44.41-180.73,45.94-180.73,45.94
	s287.94-290.99,390.55-519.19c102.61-228.21,65.61-414.45-212.89-447.22c-312.43-36.76-808.66,246.58-808.66,246.58
	s-496.22-283.34-808.66-246.58c-278.5,32.77-315.5,219.01-212.89,447.22c16.46,36.58,37.67,74.79,61.7,113.15
	c0.13,0.21,0.26,0.41,0.39,0.62c8.48,13.29,20.52,22.3,33.84,27.02l-15.88,97.32h-102.67
	c-107.35-153.22-219.38-383.56-262.52-698.43c-1.83-13.35,5.65-26.24,18.17-31.22c71.12-28.3,315.55-114.25,636.08-102.71
	c367.33,13.33,609.56,203.7,652.44,203.7s285.11-190.37,652.44-203.7c320.53-11.54,564.96,74.41,636.08,102.71
	C2651.039,157.725,2658.519,170.615,2656.689,183.965z"/>
</svg>
